<svg xmlns:mydata="http://www.w3.org/2000/svg" mydata:contrastcolor="ffffff" mydata:template="Default" mydata:presentation="2.5" mydata:layouttype="undefined" mydata:specialfontid="undefined" mydata:id1="635" mydata:id2="629" mydata:companyname="Dev Root" mydata:companytagline="" version="1.1" xmlns="http://www.w3.org/2000/svg" xmlns:xlink="http://www.w3.org/1999/xlink" viewBox="0 0 550 470" style="background-color: rgb(221, 229, 239); background-image: radial-gradient(circle closest-side, rgba(255, 255, 255, 0.07) 0%, rgba(255, 255, 255, 0) 100%);" width="669"  height="572" ><style style="animation-play-state: running;">#pulse-circle1 {
                transform: scale(0);
                opacity: 0;
                transform-origin: 50% 50%;
                animation: pulse 4s cubic-bezier(.5,.5,0,1) infinite;
            }

            #pulse-circle2 {
                transform: scale(0);
                opacity: 0;
                transform-origin: 50% 50%;
                animation: pulse 4s 0.75s cubic-bezier(.5,.5,0,1) infinite;
            }

            #pulse-circle3 {
                transform: scale(0);
                opacity: 0;
                transform-origin: 50% 50%;
                animation: pulse 4s 1.5s cubic-bezier(.5,.5,0,1) infinite;
            }
            
            @keyframes pulse {                
                12% {
                    opacity: 0.3;
                }
                
                50% {
                    transform: scale(1);
                }
                
                100% {                    
                    transform: scale(1);
                }                
            }</style><g fill="#1D4F91" fill-rule="none" stroke="none" stroke-width="1" stroke-linecap="butt" stroke-linejoin="miter" stroke-miterlimit="10" stroke-dasharray="" stroke-dashoffset="0" font-family="none" font-weight="none" font-size="none" text-anchor="none" style="mix-blend-mode: normal; animation-play-state: running;"><g data-paper-data="{&quot;isGlobalGroup&quot;:true,&quot;bounds&quot;:{&quot;x&quot;:105.33792518676529,&quot;y&quot;:106,&quot;width&quot;:339.3241496264694,&quot;height&quot;:258}}" style="animation-play-state: running;" fill="#1D4F91"><g data-paper-data="{&quot;fillRule&quot;:&quot;evenodd&quot;,&quot;fillRuleOriginal&quot;:&quot;evenodd&quot;,&quot;isIcon&quot;:true,&quot;iconStyle&quot;:&quot;standalone&quot;,&quot;selectedEffects&quot;:{&quot;container&quot;:&quot;circle_simple_outline3&quot;,&quot;transformation&quot;:&quot;rotate0;translate50&quot;,&quot;pattern&quot;:&quot;&quot;},&quot;bounds&quot;:{&quot;x&quot;:187.49451449941537,&quot;y&quot;:147.49475629022038,&quot;width&quot;:175.0104989334071,&quot;height&quot;:143.80335418916627},&quot;widthRatioIconToContainer&quot;:0.5735576308424747,&quot;heightRatioIconToContainer&quot;:0.8328580156708204,&quot;relativeBoundsIconToContainer&quot;:{&quot;top&quot;:0.0004675127255232985,&quot;left&quot;:0.000575038494862097},&quot;iconType&quot;:&quot;icon&quot;,&quot;isDetailed&quot;:false,&quot;source&quot;:&quot;ai&quot;,&quot;rawIconId&quot;:&quot;ICUliRkNsemvqsCsnGsn7pDVgiu7oaVba-QlBMLzbw&quot;,&quot;blockLetter&quot;:&quot;O&quot;,&quot;suitableAsStandaloneIcon&quot;:false}" fill-rule="evenodd" style="animation-play-state: running;" fill="#1D4F91"><path d="M240.93778,154.37274c-10.46939,4.42818 -19.74057,10.67876 -27.81354,18.75173c-8.07297,8.0729 -14.32355,17.34408 -18.75174,27.81354c-4.58532,10.84083 -6.87798,22.19482 -6.87798,34.06199c0,11.86709 2.29266,23.22113 6.87798,34.06257c3.44107,8.13492 7.98265,15.54676 13.62474,22.23554h9.07982c-7.0649,-7.26063 -12.5666,-15.54676 -16.5051,-24.8584c-4.23083,-10.00285 -6.34625,-20.48279 -6.34625,-31.43983c0,-10.95704 2.11537,-21.43694 6.34625,-31.43983c4.08719,-9.66323 9.85781,-18.22193 17.31188,-25.676c7.45407,-7.45407 16.01273,-13.22469 25.676,-17.31188c10.00285,-4.23083 20.48279,-6.34625 31.43983,-6.34625c10.95719,0 21.43713,2.11542 31.43983,6.34625c9.66357,4.08719 18.22182,9.85781 25.67588,17.31188c7.45407,7.45407 13.22481,16.01277 17.31222,25.676c4.23019,10.00289 6.34643,20.48279 6.34643,31.43983c0,10.95704 -2.11625,21.43694 -6.34643,31.43983c-3.93889,9.31125 -9.4402,17.59777 -16.5051,24.8584h9.07982c5.64179,-6.68878 10.18323,-14.10063 13.62434,-22.23554c4.58597,-10.84144 6.87837,-22.19547 6.87837,-34.06257c0,-11.86709 -2.29241,-23.22113 -6.87837,-34.06199c-4.42823,-10.46943 -10.67794,-19.74049 -18.75145,-27.81354c-8.07274,-8.07297 -17.34408,-14.32355 -27.814,-18.75173c-10.84067,-4.58532 -22.19452,-6.87798 -34.06153,-6.87798c-11.86709,0 -23.22101,2.29266 -34.06188,6.87798zM299.1374,291.29811c-0.24294,-1.48298 -0.56763,-2.65049 -1.08345,-4.04827c-0.2426,-0.65629 -0.39043,-1.32409 -0.32837,-1.48644c0.16856,-0.43868 1.95989,-0.79676 3.34615,-0.6678c1.58085,0.14853 2.86004,0.64823 5.46217,2.13467c2.61595,1.4968 3.20776,1.7478 3.92162,1.66605c0.4168,-0.04836 0.57339,-0.18192 0.6229,-0.53309c0.05296,-0.37075 -0.25446,-0.77834 -1.46456,-1.94699c-2.49275,-2.40639 -5.13172,-4.52149 -6.28541,-5.03501c-1.06043,-0.47207 -1.13872,-0.47782 -4.53415,-0.34426c-4.49973,0.17731 -4.90594,0.05987 -6.97647,-2.01953c-2.46051,-2.47087 -3.21858,-4.17722 -3.98725,-8.9762c-0.26597,-1.6603 -0.67045,-3.65565 -0.89935,-4.43398c-0.2289,-0.77834 -0.3727,-1.45765 -0.31916,-1.51177c0.24064,-0.24064 2.77346,0.77718 4.07498,1.63727c1.76392,1.16635 3.10482,2.5342 3.74707,3.8226c0.26735,0.53655 0.79595,2.18418 1.17464,3.66256c0.37858,1.47723 0.93032,3.12946 1.22553,3.67292c0.86377,1.58661 2.38947,2.46627 2.68192,1.54516c0.06448,-0.20149 0.02763,-1.84452 -0.0829,-3.65104c-0.10938,-1.80537 -0.19919,-3.48985 -0.20034,-3.74315c-0.0023,-0.4594 0,-0.4594 2.09091,-0.38571c2.77023,0.09902 3.97919,0.64247 6.30498,2.83241c2.48008,2.33616 4.34993,3.24921 5.10639,2.4939c0.17616,-0.17731 0.32124,-0.41104 0.32124,-0.52043c0,-0.10823 -0.51006,-0.73689 -1.13296,-1.39778c-0.6229,-0.65974 -1.89633,-2.09091 -2.8301,-3.17897c-2.50196,-2.92106 -3.49676,-3.46682 -7.74076,-4.24861c-1.34942,-0.24985 -2.79441,-0.62981 -3.21236,-0.84742c-0.41749,-0.21646 -1.76692,-1.24234 -2.99844,-2.27859c-1.93525,-1.62806 -2.63932,-2.07825 -5.18388,-3.31253c-3.92922,-1.90554 -4.65171,-2.77127 -5.43972,-6.51488c-0.43925,-2.08735 -0.72825,-7.4201 -0.58559,-10.8069c0.22026,-5.23201 0.51041,-6.55518 1.76335,-8.0438c0.55911,-0.66481 2.5023,-1.71188 3.53602,-1.90566c0.61691,-0.11594 0.76037,-0.03765 1.87699,1.02335c5.00898,4.75994 10.96786,5.99296 16.26884,3.36619c1.73514,-0.85951 3.72818,-2.61514 4.78746,-4.21683l0.51467,-0.77776l2.02413,-0.12377c5.19044,-0.31744 6.71948,-2.21653 6.4892,-8.05889c-0.10017,-2.52833 -0.55266,-4.19945 -1.81919,-6.72512c-0.36844,-0.73389 -0.66665,-1.39559 -0.66205,-1.46986c0.00345,-0.07426 0.52618,-0.52204 1.1606,-0.99526c1.36669,-1.01978 2.78865,-2.72153 4.10699,-4.91538c1.11224,-1.84993 1.43002,-2.85106 1.27113,-4.00636c-0.35808,-2.61537 -3.65334,-6.67504 -7.03381,-8.66406c-0.85663,-0.50419 -1.67757,-0.98789 -1.82494,-1.0747c-0.21646,-0.12849 -0.14392,-0.50362 0.39032,-2.00249c0.63787,-1.79328 0.65629,-1.92845 0.65514,-4.86287c-0.00115,-2.90529 -0.02533,-3.08744 -0.64132,-4.86817c-1.73399,-5.01371 -5.60724,-8.80545 -10.26229,-10.04848c-1.4945,-0.39895 -4.72298,-0.49521 -6.86456,-0.20449l-1.21701,0.16511v-0.68346c0,-1.87284 -1.03901,-5.39401 -2.03565,-6.90036c-0.66216,-1.00055 -1.17982,-1.21713 -2.90805,-1.21713c-3.2195,0 -7.00526,1.56151 -9.61982,3.96825c-0.46689,0.42958 -0.90165,0.69014 -0.98593,0.59078c-0.08301,-0.09775 -0.53885,-0.65951 -1.01253,-1.24868c-3.94718,-4.90697 -9.80945,-7.44716 -15.27657,-6.61954c-2.94847,0.44651 -5.39896,1.85246 -7.27364,4.17377c-0.82727,1.02439 -1.96346,2.8955 -2.21342,3.64551c-0.06033,0.18123 -0.36925,0.13955 -1.2359,-0.1673c-2.79867,-0.99065 -6.3059,-1.23947 -7.74617,-0.54979c-1.55702,0.74541 -3.78587,4.20163 -4.49374,6.96864c-0.15797,0.61749 -0.34599,1.84417 -0.41795,2.72613l-0.1308,1.60376l-2.36184,0.00864c-3.1556,0.0114 -5.10559,0.62889 -7.18902,2.27617c-1.12007,0.88565 -1.55667,1.90186 -1.65581,3.85449c-0.14024,2.76321 0.44881,5.5027 1.72742,8.03321c0.31272,0.61898 0.56821,1.18857 0.56786,1.26572c-0.00035,0.07714 -0.40955,0.30811 -0.90902,0.51386c-1.4702,0.60471 -3.66359,2.18107 -4.84307,3.48006c-1.37383,1.51361 -2.84876,3.8842 -3.29054,5.28946c-0.32895,1.045 -0.32676,1.10567 0.07668,2.31785c0.76486,2.29909 2.85739,5.2479 4.95901,6.98845c0.65134,0.53954 1.2108,1.0488 1.2435,1.13158c0.0327,0.0829 -0.25135,0.76843 -0.63153,1.52317c-0.38007,0.75462 -0.92399,2.14227 -1.20884,3.08341c-0.44063,1.45616 -0.5202,2.08873 -0.53298,4.24262c-0.01635,2.75146 0.26539,4.12967 1.09635,5.36292c0.84707,1.25685 3.45485,2.13432 6.3439,2.13432h1.1568l0.92272,1.25685c0.93596,1.27481 3.08525,3.14547 4.36363,3.79738c2.21054,1.12801 5.219,1.59593 7.7327,1.20308c3.23136,-0.50477 5.79411,-1.78752 8.37989,-4.19449c1.04143,-0.9697 1.7455,-1.47872 2.04463,-1.47838c0.74391,0 2.73845,1.06469 3.51391,1.87526c1.56289,1.63405 1.90393,3.4956 1.90646,10.40714c0.00207,5.23707 -0.25446,8.10759 -0.90925,10.18204c-0.8967,2.84081 -1.61182,3.64102 -5.07335,5.67667c-0.88173,0.51927 -2.37116,1.62921 -3.31035,2.46627c-2.33754,2.08631 -3.76065,2.76563 -6.86801,3.27799c-4.44112,0.73113 -5.22901,1.12605 -8.38058,4.19795c-2.503,2.44094 -2.93983,2.6574 -5.81691,2.89458c-1.69184,0.13817 -2.45187,0.44559 -2.45187,0.98789c0,0.58836 1.14528,1.06849 2.54767,1.06849c0.65157,0 1.242,0.05757 1.31189,0.1278c0.06989,0.07023 -0.0479,0.41104 -0.26194,0.75761c-0.72629,1.17441 0.06333,1.63497 1.52179,0.88657c0.8374,-0.42947 2.52199,-1.85834 4.31896,-3.66256c2.48549,-2.49505 3.96664,-3.14328 7.58198,-3.31714l2.22068,-0.10593l-0.13356,0.75876c-0.07357,0.4168 -0.2609,2.15539 -0.41634,3.86174c-0.29498,3.23885 -0.66642,4.95326 -1.16175,5.3643c-0.19689,0.1635 -0.58076,0.19919 -1.17556,0.11053c-1.04684,-0.15774 -2.79913,0.1681 -3.8911,0.72192c-1.12628,0.57224 -4.44377,2.8278 -6.0876,4.13808c-1.96956,1.57049 -2.76206,3.00281 -1.82633,3.29987c0.49959,0.15889 0.77949,0.03454 3.37298,-1.48989c2.60432,-1.53134 3.91977,-2.0368 6.04523,-2.3258c1.73663,-0.23603 3.97907,0.0449 4.6425,0.5826l0.40195,0.32584l-0.61576,1.5371c-0.49141,1.22738 -0.79169,2.2832 -1.02554,3.84447h5.8351c0.93941,-1.3713 2.36529,-2.34537 4.85654,-3.59577c2.92037,-1.46571 5.1947,-3.47488 7.92682,-6.99927c0.64362,-0.83015 1.2344,-1.50947 1.31269,-1.50947c0.26839,0 0.39032,0.64823 0.59008,3.13983c0.21416,2.66891 0.05066,4.31769 -0.51294,5.17778c-0.16684,0.25446 -1.28425,1.19168 -2.48365,2.08401c-0.81265,0.60448 -1.52443,1.16635 -2.14514,1.7029h12.16415c0.05803,-0.51467 0.12193,-0.89923 0.17075,-0.99249c0.08578,-0.16119 0.47449,0.09787 1.43129,0.99249h5.30788c-0.34472,-0.38687 -0.73274,-0.78294 -1.16762,-1.19629c-4.07441,-3.87326 -4.1649,-3.97228 -4.38862,-4.77479c-0.2312,-0.83015 -0.08889,-7.75458 0.16994,-8.24392c0.09361,-0.17846 0.34265,0.06908 0.7826,0.77834c1.68609,2.71842 3.34926,4.93599 4.47578,5.96878c0.74875,0.68738 1.83703,1.41735 4.22616,2.83356c2.32971,1.38051 3.48513,2.45706 4.35799,4.63432zM258.59426,175.98669c0.49084,0 1.07931,-0.87851 1.66398,-2.48503c1.36278,-3.74338 3.76606,-6.2823 6.49657,-6.86271c1.24465,-0.2647 3.97585,-0.07657 5.40898,0.3727c0.69601,0.21807 1.8337,0.72744 2.52798,1.13216c1.67147,0.9735 4.19058,3.47569 5.44582,5.40875c2.00042,3.08088 2.12315,3.09838 4.73829,0.68162c2.13029,-1.96898 2.52764,-2.14802 2.26639,-1.02231c-0.42762,1.84037 -0.08946,2.7464 0.9294,2.49068c0.65744,-0.16488 3.64229,-2.08193 4.47336,-2.87294c0.33874,-0.3225 0.70373,-0.53229 0.81069,-0.46597c0.10742,0.0662 0.51214,1.11846 0.89935,2.33812c0.73424,2.31094 1.40319,3.4644 2.43552,4.19945l0.60977,0.4343l1.79328,-0.5073c1.29991,-0.3681 2.24981,-0.50684 3.45531,-0.50615c3.15019,0.00253 5.16626,0.84512 7.40916,3.09527c2.28435,2.29172 3.29526,4.75061 3.29066,7.99786c-0.00345,2.48526 -0.81403,4.95176 -2.30738,7.01228c-1.06388,1.46848 -0.90038,1.69369 2.23254,3.07834c2.66776,1.17971 4.05633,2.08965 5.362,3.51472c2.67927,2.92233 2.73339,3.91448 0.37535,6.85293c-1.0777,1.34286 -1.85949,2.05234 -4.17838,3.79255c-0.85663,0.64293 -1.58661,1.26411 -1.6223,1.37993c-0.03569,0.11617 0.40759,0.90476 0.98443,1.75275c2.01838,2.96528 2.85659,5.30915 2.85659,7.986c0,2.67098 -0.4571,3.08088 -3.49676,3.13188c-1.12951,0.019 -2.24981,0.04122 -2.49045,0.0487c-0.32699,0.01048 -0.69889,0.41876 -1.47838,1.62069c-1.83761,2.83517 -3.82375,4.25483 -6.54102,4.67566c-2.00341,0.30995 -3.77539,-0.00967 -5.85594,-1.05674c-1.36877,-0.68899 -1.99869,-1.17948 -3.63999,-2.83459c-1.85983,-1.87561 -2.03381,-2.00134 -2.76459,-2.00134c-0.96981,0 -3.6294,0.8184 -5.18181,1.59478c-0.64247,0.32112 -1.8908,1.06814 -2.77392,1.65972c-1.58799,1.06353 -1.61113,1.07182 -2.11152,0.74391c-0.2784,-0.18249 -0.73597,-0.82819 -1.0161,-1.43486c-0.41991,-0.90764 -0.52411,-1.46191 -0.58893,-3.12497c-0.04698,-1.20562 0.01186,-2.32499 0.14577,-2.77288c0.33079,-1.10337 6.57245,-9.26393 10.07243,-13.16919l1.26572,-1.41183l1.3021,0.12101c1.39272,0.12953 3.2286,-0.15509 4.21994,-0.65422c1.74619,-0.87931 3.40706,-2.87812 3.40706,-4.10031c0,-1.32375 -1.60054,-2.18176 -4.07015,-2.18176c-1.56462,0 -3.07742,0.59043 -4.27797,1.66997c-0.94655,0.85087 -1.97198,2.53477 -1.97198,3.2385c0,0.42026 -10.5308,11.3203 -10.73091,11.10729c-0.07553,-0.08002 -0.24179,-1.85419 -0.36959,-3.94257c-0.35923,-5.86711 0.03765,-7.56264 2.54963,-10.89659c1.9037,-2.52602 3.63976,-3.98137 8.84298,-7.41273c1.98199,-1.30694 2.49148,-1.7516 3.95996,-3.45634c0.75922,-0.88196 1.23831,-1.26031 1.77981,-1.40573c1.7896,-0.48197 3.60775,-1.98948 4.50007,-3.73072c0.65168,-1.26952 0.74495,-3.3769 0.20034,-4.5018c-0.70119,-1.4489 -1.63727,-1.64038 -3.49042,-0.71409c-2.30369,1.15104 -3.6933,3.32854 -3.91102,6.12813c-0.11905,1.53031 -0.16891,1.66974 -0.91788,2.55826c-1.04246,1.23728 -2.62136,2.5015 -4.70778,3.77032c-2.74502,1.66916 -5.26448,3.61949 -7.32384,5.66988c-1.7858,1.77751 -2.25867,2.14814 -2.2604,1.7721c-0.00023,-0.0806 -0.12872,-2.11774 -0.28497,-4.52759c-0.15624,-2.40962 -0.30408,-5.89417 -0.32791,-7.74352l-0.04421,-3.36204l0.98766,-0.9218c1.67135,-1.56059 2.28343,-3.33902 1.81735,-5.28129c-0.4495,-1.87422 -2.00813,-3.33257 -3.56169,-3.33257c-1.02001,0 -2.28746,0.92422 -2.95676,2.15562c-0.46597,0.85767 -0.57443,1.29416 -0.57753,2.32257c-0.00518,1.531 0.47195,2.57807 1.7957,3.94246l0.89647,0.92387l-0.3362,3.0681c-0.18468,1.6877 -0.47253,5.08394 -0.63902,7.5471c-0.16661,2.46327 -0.37892,4.55718 -0.47207,4.65286c-0.09787,0.10109 -0.64512,-0.27449 -1.29957,-0.89106c-0.62175,-0.58594 -1.96288,-1.84141 -2.98036,-2.78992c-2.38705,-2.22597 -4.27256,-4.5718 -5.20069,-6.47067l-0.73873,-1.51131l0.06206,-2.3692c0.05814,-2.20225 0.02763,-2.44209 -0.43154,-3.40775c-0.73712,-1.55022 -2.07226,-2.95952 -3.46175,-3.65392c-1.94676,-0.97269 -3.05301,-0.76256 -3.70124,0.70281c-0.33056,0.74759 -0.38203,1.14367 -0.28439,2.19132c0.2289,2.44969 1.81378,4.69627 4.2942,6.08634c1.02347,0.57362 1.18685,0.75243 1.48126,1.61873c0.51294,1.50935 1.63059,3.61063 2.54272,4.77986c0.45549,0.5841 2.17669,2.40985 3.82513,4.0576c4.84952,4.84768 5.23984,5.61346 5.054,9.91987c-0.15348,3.55317 -0.5301,7.87409 -0.70327,8.06798c-0.1255,0.14093 -11.8124,-11.43636 -12.34584,-12.22978c-0.14035,-0.20921 -0.45837,-0.93239 -0.70603,-1.60653c-1.27965,-3.48363 -4.72609,-5.06621 -7.71589,-3.54258c-2.06086,1.05018 -2.55274,1.72834 -2.19465,3.02503c0.2677,0.96935 1.73583,2.40536 3.1883,3.11841c1.07839,0.52987 1.33365,0.57339 3.40534,0.58398c1.23152,0.00622 2.37059,0.09395 2.53143,0.1947c0.44121,0.27702 2.50495,2.54848 5.65606,6.22519c4.30963,5.02902 6.64971,8.02757 7.01608,8.99093c0.232,0.61069 0.27956,3.76975 0.06977,4.63835c-0.25227,1.04396 -1.03544,2.38763 -1.64406,2.82124l-0.59665,0.42498l-1.20999,-0.78455c-2.50207,-1.6215 -4.90455,-2.55193 -7.00042,-2.71013l-1.31177,-0.09913l-1.512,1.60871c-3.1609,3.36273 -6.00574,4.6942 -9.45713,4.42546c-2.96263,-0.23062 -5.03524,-1.56289 -6.94653,-4.46472c-0.65548,-0.99526 -1.3409,-1.86973 -1.52317,-1.94354c-0.18249,-0.07346 -1.20792,-0.08704 -2.27894,-0.02994c-2.26685,0.12078 -3.35421,-0.14289 -3.74016,-0.90695c-0.34956,-0.69152 -0.31686,-3.87936 0.05412,-5.31168c0.37408,-1.44245 1.24534,-3.2218 2.21492,-4.52218c0.98962,-1.3272 1.2207,-1.80157 1.08553,-2.22712c-0.06321,-0.19953 -0.79112,-0.82474 -1.61735,-1.38926c-2.69413,-1.84106 -5.88358,-5.58122 -5.88358,-6.8991c0,-0.72963 1.4428,-2.84968 2.84668,-4.18344c1.14505,-1.08771 1.82471,-1.52674 3.89502,-2.51773c3.35444,-1.60538 3.45485,-1.66628 3.65599,-2.21515c0.14634,-0.39919 0.03224,-0.67667 -0.70741,-1.7189c-1.78741,-2.51923 -2.73062,-4.92252 -2.97253,-7.57197c-0.14738,-1.61608 0.08785,-2.0695 1.46491,-2.82354l1.06699,-0.58421h6.65362l0.82278,-0.56994c0.45249,-0.31375 0.90533,-0.72399 1.00596,-0.91236c0.10063,-0.18802 0.18307,-1.19652 0.18307,-2.24094c0,-3.11599 0.94886,-5.94874 2.42769,-7.24716c0.6153,-0.54023 0.8404,-0.61599 1.83254,-0.61599c1.3736,0 2.87455,0.49521 5.02395,1.65742c0.88933,0.4807 1.73399,0.87413 1.87687,0.87413zM292.61043,169.92534c0,0.29556 -4.16099,4.19139 -4.23617,3.96606c-0.08762,-0.26344 0.42026,-1.27332 1.10061,-2.18878c0.65825,-0.88518 0.92894,-1.11189 1.8695,-1.56427c0.84869,-0.40794 1.26606,-0.47805 1.26606,-0.21301zM237.01397,186.8933c-0.23327,0.37777 0.12654,0.95841 1.20492,1.944c1.33399,1.2192 2.42251,1.79593 3.23896,1.71671c0.99249,-0.09649 0.90556,-0.63487 -0.28969,-1.79248c-1.54251,-1.49404 -3.7671,-2.49448 -4.1542,-1.86824zM230.97853,206.07802c-0.42843,0.15406 -0.8009,0.28186 -0.82762,0.28359c-0.20449,0.0122 0.0274,0.59527 0.35417,0.89106c0.32135,0.29095 0.79353,0.3803 2.33259,0.44236c2.30461,0.09257 3.22837,-0.05181 3.49273,-0.54599c0.49394,-0.9226 -0.5012,-1.37107 -3.01513,-1.35932c-0.85675,0.00426 -1.90831,0.13379 -2.33674,0.28831zM314.46809,206.06156c-0.70004,0.31456 -0.8336,0.86711 -0.31318,1.29899c0.50776,0.42164 4.25667,0.48082 5.19505,0.08255c0.88541,-0.37627 0.89693,-0.83694 0.03339,-1.2694c-0.82439,-0.41277 -4.08051,-0.48681 -4.91526,-0.11214zM244.11537,218.09687c-0.71881,0.36246 -0.8792,0.54437 -0.92871,1.05306c-0.08014,0.82762 0.52054,1.36278 1.71407,1.52674l0.93251,0.12838l-0.81414,0.75047c-2.60075,2.3973 -2.06317,6.36048 0.85617,6.31178c2.3654,-0.03926 4.63559,-2.48849 5.26298,-5.67725c0.21773,-1.10683 0.2031,-1.2648 -0.19378,-2.08412c-0.5195,-1.07321 -1.22312,-1.60307 -2.7677,-2.08366c-1.59478,-0.49648 -2.97955,-0.47115 -4.06139,0.07461zM302.18857,217.99497c-1.37821,0.40575 -2.72533,1.62276 -2.95791,2.67064c-0.3362,1.51419 0.45825,3.88201 1.84452,5.5012c0.81403,0.9515 2.43172,1.81297 3.40349,1.81182c2.22332,-0.0023 3.38277,-2.75262 2.05407,-4.87646c-0.29821,-0.47702 -0.89463,-1.19594 -1.32524,-1.59755l-0.78294,-0.73032h0.60333c1.66721,0 2.63782,-1.13158 1.9965,-2.32891c-0.42832,-0.80113 -2.87271,-1.02865 -4.83582,-0.45042zM237.18139,223.79541c-1.3234,0.75013 -2.46016,1.90428 -2.36587,2.40167c0.14991,0.79112 2.12949,0.24939 4.13773,-1.1325c1.05801,-0.72768 1.4048,-1.27032 1.06987,-1.67365c-0.40414,-0.48681 -1.55897,-0.32262 -2.84173,0.40448zM310.44976,223.41741c-0.3362,0.8762 1.81113,2.53132 4.05172,3.1229c0.52733,0.13897 1.03049,0.20782 1.1203,0.1529c0.37305,-0.23051 0.10938,-0.90614 -0.63326,-1.62783c-1.51522,-1.47032 -4.22904,-2.45567 -4.53876,-1.64798zM270.5035,267.89852c2.32096,-10.61381 2.29459,-10.34393 2.33328,-23.56816c0.01681,-5.73332 0.10132,-10.53851 0.18756,-10.67829c0.22613,-0.36603 0.40206,-0.09165 0.85893,1.33745c1.03544,3.23838 1.29358,6.64257 1.51373,19.96559c0.10098,6.12376 0.07023,8.91817 -0.12136,11.10004c-0.31571,3.59347 -0.33816,6.2382 -0.11238,13.23517c0.17017,5.28255 0.06597,7.9008 -0.27794,6.99351c-0.08474,-0.22337 -0.3795,-1.80767 -0.65445,-3.51978c-0.87828,-5.46447 -1.5706,-8.17253 -2.27894,-8.91517c-0.19896,-0.2084 -0.3917,-0.33966 -0.4282,-0.29245c-0.03696,0.04836 -0.5636,0.84281 -1.17084,1.76738c-1.24603,1.89748 -3.52439,4.15074 -5.53171,5.47253c-1.51799,0.9994 -2.97587,1.77428 -3.10229,1.64763c-0.04744,-0.04721 1.12997,-1.19053 2.61664,-2.54111c2.59292,-2.35458 4.03077,-4.04827 4.6022,-5.42302c0.14692,-0.35348 0.85145,-3.31484 1.56577,-6.58132zM280.53977,263.22505c-1.3804,-7.25994 -1.7554,-10.0897 -1.7554,-13.25198c0,-1.62921 0.50477,-5.94195 0.73712,-6.29865c0.07657,-0.11756 0.20241,0.53067 0.27956,1.44107c0.8762,10.34865 0.9667,11.03418 2.19776,16.6496c0.46965,2.14158 1.08288,5.34012 1.36278,7.1075c1.02197,6.44775 1.18742,6.97854 2.76194,8.85991c0.8404,1.00401 1.74147,1.8261 4.51654,4.12196c1.582,1.30797 -1.81735,0.03569 -3.62997,-1.35979c-2.20605,-1.69714 -3.83929,-3.86635 -4.42604,-5.87782c-0.15624,-0.53539 -0.46769,-2.2003 -0.6921,-3.6994c-0.22452,-1.50025 -0.83291,-4.96132 -1.35219,-7.6924zM256.47445,274.61685c0.45388,-2.21526 1.00435,-4.08742 1.44418,-4.9095c1.09923,-2.05407 4.93933,-4.95211 7.31302,-5.51859l0.01589,-0.00461c0.63844,-0.15198 0.76913,-0.18422 0.85122,-0.13471c0.02257,0.01382 0.04133,0.03224 0.06528,0.05642c0.05607,0.05642 -0.05331,0.75416 -0.24317,1.55092c-0.18986,0.79676 -0.48704,2.61249 -0.6602,4.0333c-0.17328,1.42196 -0.45123,3.11219 -0.61714,3.75582c-0.77638,3.00972 -3.46659,6.47424 -5.81864,7.49551c-1.12882,0.48934 -3.15318,0.79561 -4.33301,0.65514c-0.56188,-0.06678 -1.0222,-0.18307 -1.0222,-0.25791c0,-0.07599 0.1856,-0.30512 0.4122,-0.50891c1.24971,-1.1249 1.84129,-2.54226 2.59257,-6.21287z" data-paper-data="{&quot;isPathIcon&quot;:true}" style="animation-play-state: running;" fill="#1D4F91"></path></g><g style="animation-play-state: running;" fill="#1D4F91"><path d="M176.69687,300.38677h-10.05931v37.47055h10.05984c10.5913,0 22.30048,-3.03348 22.30048,-18.576c0,-15.59534 -11.70971,-18.89455 -22.30102,-18.89455zM176.69687,336.95235h-2.34248v-35.66113h2.34248c5.21588,0 12.9866,1.38361 12.9866,17.99011c0,16.55314 -7.77073,17.67102 -12.9866,17.67102z" data-paper-data="{&quot;glyphName&quot;:&quot;D&quot;,&quot;glyphIndex&quot;:0,&quot;firstGlyphOfWord&quot;:true,&quot;word&quot;:1}" fill-rule="nonzero" style="animation-play-state: running;" fill="#1D4F91"></path><path d="M215.57768,333.41302c-3.56654,-0.79826 -6.22757,-3.51318 -6.65338,-8.72799h16.92559c0,-8.30325 -3.61937,-12.2956 -11.33727,-12.2956c-7.34492,0 -12.45408,5.37596 -12.45408,12.88095c0,6.22704 4.79007,12.66752 11.76254,12.66752c7.13201,0 10.27221,-4.20525 11.12436,-6.97247l-0.90497,-0.47917c-1.33078,2.50095 -5.58939,3.56654 -8.46333,2.92676zM214.24583,313.29441c2.92729,0 5.11023,3.77944 5.11023,10.48565h-10.43229c0,-5.10969 2.1824,-10.48565 5.32206,-10.48565z" data-paper-data="{&quot;glyphName&quot;:&quot;e&quot;,&quot;glyphIndex&quot;:1,&quot;word&quot;:1}" fill-rule="nonzero" style="animation-play-state: running;" fill="#1D4F91"></path><path d="M250.65372,312.38836l-3.65192,9.03161l-0.06456,0.16648l-3.01374,7.45217l-7.77926,-16.64866h-7.3049c0,0 2.36649,5.11129 11.78762,25.5506h0.85268l3.71968,-9.3571l3.2133,-7.93934l0.02561,-0.06456l3.30508,-8.1912z" data-paper-data="{&quot;glyphName&quot;:&quot;v&quot;,&quot;glyphIndex&quot;:2,&quot;lastGlyphOfWord&quot;:true,&quot;word&quot;:1}" fill-rule="nonzero" style="animation-play-state: running;" fill="#1D4F91"></path><path d="M298.57928,331.73647c-2.60821,-9.58014 -6.86575,-11.92315 -10.32557,-11.55017c6.33376,-0.74543 10.37893,-3.1402 10.37893,-9.6335c0,-8.88807 -7.45164,-10.16603 -18.04347,-10.16603h-9.36724v37.47055h7.71683v-17.08567h2.50202c0,0 4.89626,0 6.65285,5.48214c3.72609,11.55017 2.34194,11.55017 11.8159,11.60353h4.89732v-0.90497c-1.38414,-0.10672 -5.16305,-1.17124 -6.22757,-5.21588zM280.5897,319.86668h-1.64987v-18.57546h1.64987c5.16252,0 9.36724,0 9.36724,9.26105c0,9.26052 -4.20525,9.31441 -9.36724,9.31441z" data-paper-data="{&quot;glyphName&quot;:&quot;R&quot;,&quot;glyphIndex&quot;:3,&quot;firstGlyphOfWord&quot;:true,&quot;word&quot;:2}" fill-rule="nonzero" style="animation-play-state: running;" fill="#1D4F91"></path><path d="M320.53008,312.38943c-8.09035,0 -12.66805,5.74894 -12.66805,12.77423c0,6.97247 4.5777,12.77423 12.66805,12.77423c8.14264,0 12.66751,-5.80176 12.66751,-12.77423c0,-7.02529 -4.52487,-12.77423 -12.66751,-12.77423zM320.53008,337.03292c-3.8328,0 -4.84396,-2.23522 -4.84396,-11.86926c0,-9.6335 1.01116,-11.86926 4.84396,-11.86926c3.8328,0 4.79007,2.23469 4.79007,11.86926c0,9.63403 -0.95727,11.86926 -4.79007,11.86926z" data-paper-data="{&quot;glyphName&quot;:&quot;o&quot;,&quot;glyphIndex&quot;:4,&quot;word&quot;:2}" fill-rule="nonzero" style="animation-play-state: running;" fill="#1D4F91"></path><path d="M348.93759,312.38943c-8.09035,0 -12.66805,5.74894 -12.66805,12.77423c0,6.97247 4.5777,12.77423 12.66805,12.77423c8.14264,0 12.66751,-5.80176 12.66751,-12.77423c0,-7.02529 -4.52487,-12.77423 -12.66751,-12.77423zM348.93759,337.03292c-3.8328,0 -4.84396,-2.23522 -4.84396,-11.86926c0,-9.6335 1.01116,-11.86926 4.84396,-11.86926c3.8328,0 4.79007,2.23469 4.79007,11.86926c0,9.63403 -0.95727,11.86926 -4.79007,11.86926z" data-paper-data="{&quot;glyphName&quot;:&quot;o&quot;,&quot;glyphIndex&quot;:5,&quot;word&quot;:2}" fill-rule="nonzero" style="animation-play-state: running;" fill="#1D4F91"></path><path d="M382.56441,332.29725c-0.47907,0.79781 -1.65012,1.8624 -3.19314,1.8624c-2.66085,0 -3.939,-1.54366 -3.939,-4.52453l-0.00257,-16.34026h6.12078l0.21292,-0.90491h-6.3337l0.00192,-7.76962l-6.65308,1.11718v6.65308h-2.82054l0.15969,0.90491h2.66085v16.49994c0,6.44016 2.50116,8.14351 6.70631,8.14351c3.56639,0 6.81277,-2.66085 7.87736,-5.16329z" data-paper-data="{&quot;glyphName&quot;:&quot;t&quot;,&quot;glyphIndex&quot;:6,&quot;lastGlyphOfWord&quot;:true,&quot;word&quot;:2}" fill-rule="nonzero" style="animation-play-state: running;" fill="#1D4F91"></path><path d="M143.5601,334.82161h-36.89682c-0.04337,0 -0.08666,-0.0023 -0.12988,-0.00691c-0.04322,-0.00384 -0.08609,-0.00998 -0.12861,-0.01842c-0.0426,-0.00844 -0.08467,-0.01919 -0.12619,-0.03224c-0.04153,-0.01228 -0.08236,-0.02687 -0.12251,-0.04375c-0.04007,-0.01612 -0.07925,-0.03454 -0.11756,-0.05527c-0.0383,-0.02072 -0.07549,-0.04299 -0.11157,-0.06678c-0.03608,-0.0238 -0.07089,-0.04951 -0.10443,-0.07714c-0.03362,-0.02763 -0.06574,-0.0568 -0.09637,-0.08751c-0.0307,-0.0307 -0.05983,-0.06294 -0.08739,-0.09672c-0.02756,-0.03377 -0.05339,-0.0687 -0.07749,-0.10478c-0.0241,-0.03608 -0.0464,-0.0733 -0.0669,-0.11168c-0.02042,-0.03761 -0.03896,-0.07676 -0.05561,-0.11744c-0.01658,-0.03991 -0.03116,-0.0806 -0.04375,-0.12205c-0.01259,-0.04145 -0.02314,-0.08367 -0.03166,-0.12665c-0.00844,-0.04222 -0.01481,-0.08482 -0.01911,-0.1278c-0.00422,-0.04375 -0.00633,-0.08712 -0.00633,-0.13011c0,-0.1704 0.03159,-0.33467 0.09476,-0.49279l9.35869,-23.39614l-9.35869,-23.39614c-0.06525,-0.1635 -0.09679,-0.33313 -0.09464,-0.50891c0.00215,-0.17578 0.03784,-0.34426 0.10708,-0.50546c0.06924,-0.16196 0.16672,-0.30435 0.29245,-0.42716c0.12581,-0.12281 0.27031,-0.21684 0.4335,-0.28209c0.15797,-0.06294 0.32204,-0.09441 0.49222,-0.09441h47.77775c0.04337,0 0.08666,0.00192 0.12988,0.00576c0.04322,0.00461 0.08609,0.01113 0.12861,0.01957c0.0426,0.00844 0.08467,0.01881 0.12619,0.03109c0.04153,0.01305 0.08236,0.02763 0.12251,0.04375c0.04007,0.01689 0.07925,0.03569 0.11756,0.05642c0.0383,0.01996 0.07549,0.04222 0.11157,0.06678c0.03608,0.0238 0.07089,0.04951 0.10443,0.07714c0.03362,0.02763 0.06574,0.0568 0.09637,0.08751c0.0307,0.0307 0.05983,0.06294 0.08739,0.09672c0.02756,0.03301 0.05339,0.06755 0.07749,0.10362c0.0241,0.03608 0.0464,0.0733 0.0669,0.11168c0.02042,0.03838 0.03896,0.07753 0.05561,0.11744c0.01658,0.04068 0.03116,0.08175 0.04375,0.1232c0.01259,0.04145 0.02314,0.08328 0.03166,0.1255c0.00844,0.04299 0.01481,0.08597 0.01911,0.12896c0.00422,0.04299 0.00633,0.08635 0.00633,0.13011c0,0.17578 -0.03362,0.34503 -0.10086,0.50776c-0.06732,0.16196 -0.16311,0.30512 -0.28739,0.42947l-7.29287,7.29287h253.82934l-7.29287,-7.29287c-0.12435,-0.12435 -0.2203,-0.26751 -0.28785,-0.42947c-0.06678,-0.16273 -0.10017,-0.33198 -0.10017,-0.50776c0,-0.17578 0.03339,-0.34503 0.10017,-0.50776c0.06755,-0.16196 0.1635,-0.30512 0.28785,-0.42947c0.12435,-0.12435 0.26751,-0.2203 0.42947,-0.28785c0.16273,-0.06678 0.33198,-0.10017 0.50776,-0.10017h47.77786c0.04299,0 0.08597,0.00192 0.12896,0.00576c0.04375,0.00461 0.08674,0.01113 0.12896,0.01957c0.04299,0.00844 0.0852,0.01881 0.12665,0.03109c0.04145,0.01305 0.08213,0.02763 0.12205,0.04375c0.03991,0.01689 0.07906,0.03569 0.11744,0.05642c0.03838,0.01996 0.07561,0.04222 0.11168,0.06678c0.03608,0.0238 0.071,0.04951 0.10478,0.07714c0.03377,0.02763 0.06601,0.0568 0.09672,0.08751c0.0307,0.0307 0.05987,0.06294 0.08751,0.09672c0.02687,0.03301 0.05258,0.06755 0.07714,0.10362c0.0238,0.03608 0.04606,0.0733 0.06678,0.11168c0.02072,0.03838 0.03915,0.07753 0.05527,0.11744c0.01689,0.04068 0.03147,0.08175 0.04375,0.1232c0.01305,0.04145 0.0238,0.08328 0.03224,0.1255c0.00844,0.04299 0.01458,0.08597 0.01842,0.12896c0.00461,0.04299 0.00691,0.08635 0.00691,0.13011c0,0.1704 -0.03185,0.33467 -0.09556,0.49279l-9.35846,23.39614l9.35846,23.39614c0.01612,0.04068 0.03032,0.08175 0.0426,0.1232c0.01228,0.04145 0.02226,0.08367 0.02994,0.12665c0.00844,0.04299 0.01458,0.08597 0.01842,0.12896c0.00307,0.04299 0.00461,0.08635 0.00461,0.13011c-0.00077,0.04299 -0.00345,0.08635 -0.00806,0.13011c-0.00461,0.04299 -0.01151,0.08559 -0.02072,0.1278c-0.00921,0.04222 -0.02034,0.08405 -0.03339,0.1255c-0.01305,0.04145 -0.02802,0.08213 -0.0449,0.12205c-0.01765,0.03991 -0.03684,0.07906 -0.05757,0.11744c-0.02072,0.03761 -0.04337,0.07446 -0.06793,0.11053c-0.02456,0.03608 -0.05066,0.07062 -0.07829,0.10362c-0.0284,0.03301 -0.05795,0.06486 -0.08866,0.09556c-0.03147,0.02994 -0.06409,0.05872 -0.09787,0.08635c-0.03377,0.02687 -0.06908,0.0522 -0.10593,0.07599c-0.03608,0.0238 -0.0733,0.04567 -0.11168,0.06563c-0.03838,0.01996 -0.07791,0.038 -0.11859,0.05412c-0.15812,0.06294 -0.322,0.09441 -0.49164,0.09441h-36.89728v8.2301c0,0.04375 -0.00192,0.08712 -0.00576,0.13011c-0.00461,0.04299 -0.01113,0.08597 -0.01957,0.12896c-0.00844,0.04222 -0.01881,0.08405 -0.03109,0.1255c-0.01305,0.04145 -0.02763,0.08252 -0.04375,0.1232c-0.01689,0.03991 -0.03569,0.07906 -0.05642,0.11744c-0.01996,0.03838 -0.04222,0.07561 -0.06678,0.11168c-0.0238,0.03608 -0.04951,0.07062 -0.07714,0.10362c-0.02763,0.03377 -0.0568,0.06601 -0.08751,0.09672c-0.0307,0.0307 -0.06294,0.05987 -0.09672,0.08751c-0.03301,0.02763 -0.06755,0.05335 -0.10362,0.07714c-0.03608,0.02456 -0.0733,0.04682 -0.11168,0.06678c-0.03838,0.02072 -0.07753,0.03915 -0.11744,0.05527c-0.04068,0.01689 -0.08175,0.03185 -0.1232,0.0449c-0.04145,0.01228 -0.08328,0.02264 -0.1255,0.03109c-0.04299,0.00844 -0.08597,0.01497 -0.12896,0.01957c-0.04299,0.00384 -0.08635,0.00576 -0.13011,0.00576h-260.22885c-0.04345,0 -0.08674,-0.00192 -0.12988,-0.00576c-0.04322,-0.00461 -0.08612,-0.01113 -0.12872,-0.01957c-0.04252,-0.00844 -0.08459,-0.01881 -0.12619,-0.03109c-0.04153,-0.01305 -0.08232,-0.02802 -0.12239,-0.0449c-0.04014,-0.01612 -0.07933,-0.03454 -0.11756,-0.05527c-0.0383,-0.01996 -0.07549,-0.04222 -0.11157,-0.06678c-0.03615,-0.0238 -0.071,-0.04951 -0.10455,-0.07714c-0.03354,-0.02763 -0.06567,-0.0568 -0.09637,-0.08751c-0.0307,-0.0307 -0.0598,-0.06294 -0.08727,-0.09672c-0.02756,-0.03301 -0.05339,-0.06755 -0.07749,-0.10362c-0.0241,-0.03608 -0.0464,-0.0733 -0.0669,-0.11168c-0.02049,-0.03838 -0.03903,-0.07753 -0.05561,-0.11744c-0.01658,-0.04068 -0.0312,-0.08175 -0.04387,-0.1232c-0.01259,-0.04145 -0.0231,-0.08328 -0.03155,-0.1255c-0.00844,-0.04299 -0.01481,-0.08597 -0.01911,-0.12896c-0.00422,-0.04299 -0.00633,-0.08635 -0.00633,-0.13011zM146.21082,333.49636c0,-0.04375 -0.00211,-0.08712 -0.00633,-0.13011c-0.0043,-0.04299 -0.01067,-0.08597 -0.01911,-0.12896c-0.00844,-0.04222 -0.01896,-0.08405 -0.03155,-0.1255c-0.01267,-0.04145 -0.02729,-0.08252 -0.04387,-0.1232c-0.01658,-0.03991 -0.03512,-0.07906 -0.05561,-0.11744c-0.02049,-0.03838 -0.04279,-0.07561 -0.0669,-0.11168c-0.0241,-0.03608 -0.04993,-0.07062 -0.07749,-0.10362c-0.02748,-0.03377 -0.05657,-0.06601 -0.08727,-0.09672c-0.0307,-0.0307 -0.06283,-0.05987 -0.09637,-0.08751c-0.03354,-0.02763 -0.06839,-0.05335 -0.10455,-0.07714c-0.03608,-0.02456 -0.07327,-0.04682 -0.11157,-0.06678c-0.03823,-0.02072 -0.07741,-0.03953 -0.11756,-0.05642c-0.04007,-0.01612 -0.08087,-0.0307 -0.12239,-0.04375c-0.0416,-0.01228 -0.08367,-0.02264 -0.12619,-0.03109c-0.0426,-0.00844 -0.08551,-0.01497 -0.12872,-0.01957c-0.04314,-0.00384 -0.08643,-0.00576 -0.12988,-0.00576h-36.26448l8.82847,-22.07205c0.06317,-0.15736 0.09476,-0.32124 0.09476,-0.49164c0,-0.1704 -0.03159,-0.33467 -0.09476,-0.49279l-8.82847,-22.07089h42.62023l-7.29299,7.29287c-0.12427,0.12435 -0.22003,0.26789 -0.28727,0.43062c-0.06724,0.16196 -0.10086,0.33083 -0.10086,0.50661c0,0.17578 0.03362,0.34503 0.10086,0.50776c0.06724,0.16196 0.163,0.30512 0.28727,0.42947c0.12427,0.12435 0.26762,0.2203 0.43004,0.28785c0.16235,0.06678 0.33141,0.10017 0.50718,0.10017h260.22885c0.04375,0 0.08712,-0.00192 0.13011,-0.00576c0.04299,-0.00461 0.08597,-0.01113 0.12896,-0.01957c0.04222,-0.00844 0.08405,-0.01881 0.1255,-0.03109c0.04145,-0.01305 0.08252,-0.02763 0.1232,-0.04375c0.03991,-0.01689 0.07906,-0.03569 0.11744,-0.05642c0.03838,-0.01996 0.07561,-0.04222 0.11168,-0.06678c0.03608,-0.0238 0.07062,-0.04951 0.10362,-0.07714c0.03377,-0.02763 0.06601,-0.0568 0.09672,-0.08751c0.0307,-0.0307 0.05987,-0.06294 0.08751,-0.09672c0.02763,-0.03301 0.05335,-0.06755 0.07714,-0.10362c0.02456,-0.03608 0.04682,-0.0733 0.06678,-0.11168c0.02072,-0.03838 0.03953,-0.07753 0.05642,-0.11744c0.01612,-0.04068 0.0307,-0.08175 0.04375,-0.1232c0.01228,-0.04145 0.02264,-0.08328 0.03109,-0.1255c0.00844,-0.04299 0.01497,-0.08597 0.01957,-0.12896c0.00384,-0.04299 0.00576,-0.08635 0.00576,-0.13011c0,-0.17578 -0.03339,-0.34465 -0.10017,-0.50661c-0.06755,-0.16273 -0.1635,-0.30627 -0.28785,-0.43062l-7.29287,-7.29287h42.61966l-8.82767,22.07089c-0.06371,0.15812 -0.09556,0.32239 -0.09556,0.49279c0,0.1704 0.03185,0.33429 0.09556,0.49164l8.82767,22.07205h-36.26402c-0.04375,0 -0.08712,0.00192 -0.13011,0.00576c-0.04299,0.00461 -0.08597,0.01113 -0.12896,0.01957c-0.04222,0.00844 -0.08405,0.01881 -0.1255,0.03109c-0.04145,0.01305 -0.08252,0.02763 -0.1232,0.04375c-0.03991,0.01689 -0.07906,0.03569 -0.11744,0.05642c-0.03838,0.01996 -0.07561,0.04222 -0.11168,0.06678c-0.03608,0.0238 -0.07062,0.04951 -0.10362,0.07714c-0.03377,0.02763 -0.06601,0.0568 -0.09672,0.08751c-0.0307,0.0307 -0.05987,0.06294 -0.08751,0.09672c-0.02763,0.03301 -0.05335,0.06755 -0.07714,0.10362c-0.02456,0.03608 -0.04682,0.0733 -0.06678,0.11168c-0.02072,0.03838 -0.03953,0.07753 -0.05642,0.11744c-0.01612,0.04068 -0.0307,0.08175 -0.04375,0.1232c-0.01228,0.04145 -0.02264,0.08328 -0.03109,0.1255c-0.00844,0.04299 -0.01497,0.08597 -0.01957,0.12896c-0.00384,0.04299 -0.00576,0.08635 -0.00576,0.13011v8.2301h-257.57825z" fill-rule="evenodd" style="animation-play-state: running;" fill="#1D4F91"></path><path d="M143.5601,295.27384v47.77786c0,0.04375 0.00211,0.08712 0.00633,0.13011c0.0043,0.04299 0.01067,0.08597 0.01911,0.12896c0.00844,0.04222 0.01896,0.08405 0.03155,0.1255c0.01267,0.04145 0.02729,0.08252 0.04387,0.1232c0.01658,0.03991 0.03512,0.07906 0.05561,0.11744c0.02049,0.03838 0.04279,0.07561 0.0669,0.11168c0.0241,0.03608 0.04993,0.07062 0.07749,0.10362c0.02748,0.03377 0.05657,0.06601 0.08727,0.09672c0.0307,0.0307 0.06283,0.05987 0.09637,0.08751c0.03354,0.02763 0.06839,0.05335 0.10455,0.07714c0.03608,0.02456 0.07327,0.04682 0.11157,0.06678c0.03823,0.02072 0.07741,0.03915 0.11756,0.05527c0.04007,0.01689 0.08087,0.03185 0.12239,0.0449c0.0416,0.01228 0.08367,0.02264 0.12619,0.03109c0.0426,0.00844 0.08551,0.01497 0.12872,0.01957c0.04314,0.00384 0.08643,0.00576 0.12988,0.00576h260.22885c0.04375,0 0.08712,-0.00192 0.13011,-0.00576c0.04299,-0.00461 0.08597,-0.01113 0.12896,-0.01957c0.04222,-0.00844 0.08405,-0.01881 0.1255,-0.03109c0.04145,-0.01305 0.08252,-0.02802 0.1232,-0.0449c0.03991,-0.01612 0.07906,-0.03454 0.11744,-0.05527c0.03838,-0.01996 0.07561,-0.04222 0.11168,-0.06678c0.03608,-0.0238 0.07062,-0.04951 0.10362,-0.07714c0.03377,-0.02763 0.06601,-0.0568 0.09672,-0.08751c0.0307,-0.0307 0.05987,-0.06294 0.08751,-0.09672c0.02763,-0.03301 0.05335,-0.06755 0.07714,-0.10362c0.02456,-0.03608 0.04682,-0.0733 0.06678,-0.11168c0.02072,-0.03838 0.03953,-0.07753 0.05642,-0.11744c0.01612,-0.04068 0.0307,-0.08175 0.04375,-0.1232c0.01228,-0.04145 0.02264,-0.08328 0.03109,-0.1255c0.00844,-0.04299 0.01497,-0.08597 0.01957,-0.12896c0.00384,-0.04299 0.00576,-0.08635 0.00576,-0.13011v-47.77786c0,-0.04299 -0.00192,-0.08635 -0.00576,-0.13011c-0.00461,-0.04299 -0.01113,-0.08559 -0.01957,-0.1278c-0.00844,-0.04299 -0.01881,-0.0852 -0.03109,-0.12665c-0.01305,-0.04145 -0.02763,-0.08213 -0.04375,-0.12205c-0.01689,-0.04068 -0.03569,-0.07983 -0.05642,-0.11744c-0.01996,-0.03838 -0.04222,-0.07561 -0.06678,-0.11168c-0.0238,-0.03608 -0.04951,-0.071 -0.07714,-0.10478c-0.02763,-0.03377 -0.0568,-0.06601 -0.08751,-0.09672c-0.0307,-0.0307 -0.06294,-0.05987 -0.09672,-0.08751c-0.03301,-0.02763 -0.06755,-0.05335 -0.10362,-0.07714c-0.03608,-0.0238 -0.0733,-0.04606 -0.11168,-0.06678c-0.03838,-0.02072 -0.07753,-0.03915 -0.11744,-0.05527c-0.04068,-0.01689 -0.08175,-0.03147 -0.1232,-0.04375c-0.04145,-0.01305 -0.08328,-0.0238 -0.1255,-0.03224c-0.04299,-0.00844 -0.08597,-0.01458 -0.12896,-0.01842c-0.04299,-0.00461 -0.08635,-0.00691 -0.13011,-0.00691h-260.22885c-0.04345,0 -0.08674,0.0023 -0.12988,0.00691c-0.04322,0.00384 -0.08612,0.00998 -0.12872,0.01842c-0.04252,0.00844 -0.08459,0.01919 -0.12619,0.03224c-0.04153,0.01228 -0.08232,0.02687 -0.12239,0.04375c-0.04014,0.01612 -0.07933,0.03454 -0.11756,0.05527c-0.0383,0.02072 -0.07549,0.04299 -0.11157,0.06678c-0.03615,0.0238 -0.071,0.04951 -0.10455,0.07714c-0.03354,0.02763 -0.06567,0.0568 -0.09637,0.08751c-0.0307,0.0307 -0.0598,0.06294 -0.08727,0.09672c-0.02756,0.03377 -0.05339,0.0687 -0.07749,0.10478c-0.0241,0.03608 -0.0464,0.0733 -0.0669,0.11168c-0.02049,0.03761 -0.03903,0.07676 -0.05561,0.11744c-0.01658,0.03991 -0.0312,0.0806 -0.04387,0.12205c-0.01259,0.04145 -0.0231,0.08367 -0.03155,0.12665c-0.00844,0.04222 -0.01481,0.08482 -0.01911,0.1278c-0.00422,0.04375 -0.00633,0.08712 -0.00633,0.13011zM146.21082,341.72646v-45.12738h257.57825v45.12738z" fill-rule="evenodd" style="animation-play-state: running;" fill="#1D4F91"></path></g><g data-paper-data="{&quot;isContainerElementsWrapper&quot;:true}" fill-rule="evenodd" style="animation-play-state: running;" fill="#1D4F91"><path d="M145.99965,235c0,-71.2447 57.75519,-129 129,-129c71.24435,0 129.00012,57.7553 129.00012,129c0,16.49013 -3.09377,32.2572 -8.73325,46.75313c-0.16235,0.01267 -0.32354,0.03454 -0.48358,0.06563c-0.25561,0.05066 -0.50431,0.1255 -0.7461,0.22567c-0.24064,0.10017 -0.46976,0.22337 -0.68738,0.36844c-0.21761,0.14507 -0.41795,0.30972 -0.60217,0.49394c-0.18537,0.18537 -0.35002,0.38571 -0.4951,0.60217c-0.14507,0.21761 -0.26712,0.44674 -0.36729,0.68738c-0.10017,0.24179 -0.17501,0.49049 -0.22567,0.7461c-0.05181,0.25676 -0.07714,0.51467 -0.07714,0.77603c0,0.26136 0.02533,0.51927 0.07714,0.77603c0.05066,0.25561 0.1255,0.50431 0.22567,0.7461c0.10017,0.24064 0.22222,0.46976 0.36729,0.68738c0.08175,0.12205 0.1704,0.23949 0.26482,0.35232c-0.4594,1.01322 -0.93262,2.01838 -1.41735,3.01778h-43.15045c12.03427,-15.57018 19.19358,-35.09789 19.19358,-56.29811c0,-50.88914 -41.25412,-92.14287 -92.14314,-92.14287c-50.88914,0 -92.14289,41.25374 -92.14289,92.14287c0,21.20022 7.15977,40.72793 19.19322,56.29811h-43.14976c-0.48531,-0.9994 -0.95807,-2.00456 -1.41816,-3.01778c0.09464,-0.11284 0.18307,-0.23028 0.26505,-0.35232c0.14496,-0.21761 0.26747,-0.44674 0.36741,-0.68738c0.09983,-0.24179 0.17524,-0.49049 0.22625,-0.7461c0.05101,-0.25676 0.07645,-0.51467 0.07645,-0.77603c0,-0.13011 -0.00645,-0.26021 -0.01923,-0.38917c-0.01278,-0.13011 -0.03178,-0.25906 -0.05722,-0.38687c-0.02545,-0.1278 -0.05699,-0.2533 -0.09476,-0.37765c-0.03788,-0.1255 -0.08163,-0.24755 -0.13149,-0.36844c-0.04985,-0.11974 -0.10547,-0.23719 -0.16684,-0.35232c-0.06137,-0.11514 -0.12826,-0.22682 -0.20057,-0.33505c-0.07242,-0.10823 -0.14991,-0.21301 -0.23246,-0.31318c-0.08267,-0.10017 -0.17006,-0.19689 -0.26206,-0.289c-0.09211,-0.09211 -0.18848,-0.17962 -0.28911,-0.26252c-0.10075,-0.08175 -0.20518,-0.15889 -0.31341,-0.23143c-0.10835,-0.07254 -0.21991,-0.14047 -0.33471,-0.20149c-0.11479,-0.06102 -0.23246,-0.11744 -0.35278,-0.16695c-0.12032,-0.04951 -0.24271,-0.09326 -0.36741,-0.13126c-0.12458,-0.038 -0.25077,-0.06908 -0.37846,-0.09441c-0.12769,-0.02533 -0.25641,-0.0449 -0.38594,-0.05757c-0.0327,-0.00307 -0.06528,-0.00576 -0.09775,-0.00806c-5.63925,-14.49593 -8.73337,-30.26323 -8.73337,-46.75313zM210.99567,347.02744c18.86164,10.79999 40.71193,16.97256 64.00398,16.97256c23.29148,0 45.14246,-6.17257 64.00444,-16.97256z" data-paper-data="{&quot;isBaseLogoContainer&quot;:true}" style="animation-play-state: running;" fill="#1D4F91"></path></g></g></g><circle id="pulse-circle1" cx="50%" cy="50%" r="45%" stroke="#1D4F91" stroke-width="5px" fill="none" style="animation-play-state: running;"></circle><circle id="pulse-circle2" cx="50%" cy="50%" r="45%" stroke="#1D4F91" stroke-width="5px" fill="none" style="animation-play-state: running;"></circle><circle id="pulse-circle3" cx="50%" cy="50%" r="45%" stroke="#1D4F91" stroke-width="5px" fill="none" style="animation-play-state: running;"></circle></svg>